<svg width="146" height="24" viewBox="0 0 146 24" fill="none" xmlns="http://www.w3.org/2000/svg">
<g clip-path="url(#clip0_5558_1359)">
<path d="M0 0.00151825H12.5899C16.7755 0.00151825 19.4245 2.92003 19.4245 6.46091C19.4245 9.2152 18.3125 11.281 15.729 12.3304V12.3965C18.247 13.0517 18.9667 15.5112 19.1301 17.8722C19.2279 19.3477 19.1952 22.102 20.1111 23.4136H14.9773C14.3558 21.9378 14.4213 19.6753 14.1596 17.8065C13.7998 15.347 12.8515 14.2652 10.268 14.2652H5.13381V23.4136H0V0.00151825ZM5.13423 10.5926H10.7589C13.0481 10.5926 14.2907 9.60891 14.2907 7.24832C14.2907 4.98544 13.0481 4.00221 10.7589 4.00221H5.13423V10.5926Z" fill="#00AEEF"/>
<path d="M24.8611 16.0684C24.9917 19.0197 26.4304 20.3638 29.0139 20.3638C30.8781 20.3638 32.3823 19.2164 32.6767 18.1671H36.7644C35.4567 22.1677 32.6767 23.8723 28.851 23.8723C23.5206 23.8723 20.2178 20.2 20.2178 14.9538C20.2178 9.87133 23.7168 6.00201 28.851 6.00201C34.6063 6.00201 37.3859 10.855 37.0588 16.0684H24.8611ZM32.4146 13.117C31.9896 10.7564 30.9759 9.51046 28.7195 9.51046C25.7762 9.51046 24.9262 11.8058 24.8607 13.117H32.4146Z" fill="#00AEEF"/>
<path d="M38.1374 11.6748C38.399 7.31368 42.291 6.00201 46.084 6.00201C49.4523 6.00201 53.5073 6.75576 53.5073 10.8221V19.6425C53.5073 21.1837 53.6707 22.7248 54.0956 23.4133H49.3868C49.2235 22.8886 49.0924 22.3307 49.0601 21.774C47.5886 23.3148 45.4301 23.8723 43.3699 23.8723C40.1649 23.8723 37.6145 22.2659 37.6145 18.7903C37.6145 14.9538 40.4924 14.0354 43.3699 13.6421C46.2146 13.216 48.8636 13.3141 48.8636 11.4125C48.8636 9.41235 47.4899 9.11676 45.8551 9.11676C44.0892 9.11676 42.9449 9.83807 42.7815 11.6744L38.1374 11.6748ZM48.8636 15.1176C48.0787 15.8061 46.4434 15.8389 45.0047 16.1012C43.566 16.396 42.2579 16.8882 42.2579 18.5932C42.2579 20.331 43.5987 20.7575 45.103 20.7575C48.733 20.7575 48.8636 17.8723 48.8636 16.8558V15.1176Z" fill="#00AEEF"/>
<path d="M66.8984 12.4294C66.604 10.5274 65.3937 9.51088 63.4645 9.51088C60.4888 9.51088 59.5078 12.5275 59.5078 15.0195C59.5078 17.4457 60.456 20.3638 63.3662 20.3638C65.5247 20.3638 66.7673 18.9873 67.0617 16.9211H71.5421C70.9538 21.4132 67.8466 23.8723 63.3994 23.8723C58.2979 23.8723 54.8645 20.2653 54.8645 15.1833C54.8645 9.90376 58.0036 6.00201 63.4972 6.00201C67.4871 6.00201 71.1499 8.10027 71.4443 12.429L66.8984 12.4294Z" fill="#00AEEF"/>
<path d="M72.5646 0.00151062H77.2079V8.8219H77.3061C78.4828 6.91988 80.5103 6.00192 82.2438 6.00192C87.1815 6.00192 88.4241 8.78906 88.4241 12.986V23.4132H83.7808V13.8387C83.7808 11.0515 82.9632 9.67417 80.8047 9.67417C78.2867 9.67417 77.2075 11.084 77.2075 14.5271V23.4132H72.5641L72.5646 0.00151062Z" fill="#00AEEF"/>
<path d="M91.827 0.00151062H95.097L103.175 20.5275L111.219 0.00151062H114.489V23.4132H112.265V3.18194H112.2L104.221 23.4132H102.128L94.1165 3.18194H94.051V23.4132H91.8278V0.00151062H91.827Z" fill="#6D6E71"/>
<path d="M117.965 0.00151062H126.043C133.074 0.165313 136.768 4.03463 136.768 11.7076C136.768 19.3805 133.074 23.2494 126.043 23.4136H117.965V0.00151062ZM120.189 21.5112H124.931C131.635 21.544 134.545 18.6916 134.545 11.7076C134.545 4.72351 131.634 1.87069 124.931 1.90353H120.189V21.5112Z" fill="#6D6E71"/>
<path fill-rule="evenodd" clip-rule="evenodd" d="M142.47 2.11048C142.62 2.11048 142.783 2.1535 142.96 2.24012C143.137 2.32341 143.287 2.45347 143.41 2.63C143.537 2.8033 143.6 3.02335 143.6 3.28996C143.6 3.55994 143.535 3.79037 143.405 3.98036C143.29 4.14511 143.152 4.27172 142.993 4.36631L143.751 5.80015H142.86L142.214 4.54996H141.41V5.80015H140.6V2.11048H142.47ZM141.41 3.94991H142.161C142.27 3.9498 142.389 3.8948 142.515 3.78493C142.645 3.67493 142.711 3.50994 142.711 3.28996C142.711 3.06339 142.645 2.91034 142.515 2.83035C142.388 2.75035 142.277 2.71053 142.18 2.71053H141.41V3.94991Z" fill="#6D6E71"/>
<path fill-rule="evenodd" clip-rule="evenodd" d="M142 0C142.554 3.33356e-05 143.072 0.103717 143.555 0.310336C144.039 0.516988 144.464 0.804001 144.83 1.17064C145.197 1.53725 145.484 1.96213 145.691 2.44537C145.897 2.92859 146 3.44682 146 4C146 4.55318 145.897 5.07141 145.691 5.55463C145.484 6.03787 145.197 6.46275 144.83 6.82936C144.464 7.196 144.039 7.48301 143.555 7.68966C143.072 7.89628 142.554 7.99997 142 8C141.447 8 140.928 7.89632 140.445 7.68966C139.962 7.48302 139.536 7.1959 139.17 6.82936C138.803 6.4628 138.517 6.03777 138.31 5.55463C138.104 5.07136 138 4.55326 138 4C138 3.44674 138.104 2.92864 138.31 2.44537C138.517 1.96223 138.803 1.5372 139.17 1.17064C139.536 0.804097 139.961 0.516976 140.445 0.310336C140.928 0.103683 141.447 0 142 0ZM142 0.960471C141.441 0.960471 140.93 1.09674 140.47 1.37C140.01 1.64328 139.644 2.01004 139.37 2.46992C139.097 2.92989 138.96 3.44004 138.96 4C138.96 4.55996 139.097 5.07011 139.37 5.53008C139.644 5.98997 140.01 6.35672 140.47 6.63C140.93 6.90326 141.441 7.03953 142 7.03953C142.56 7.03949 143.071 6.90327 143.531 6.63C143.991 6.3567 144.358 5.98996 144.631 5.53008C144.904 5.07013 145.04 4.55993 145.04 4C145.04 3.44006 144.904 2.92988 144.631 2.46992C144.358 2.01004 143.991 1.6433 143.531 1.37C143.071 1.09673 142.56 0.960515 142 0.960471Z" fill="#6D6E71"/>
</g>
<defs>
<clipPath id="clip0_5558_1359">
<rect width="146" height="24" fill="white"/>
</clipPath>
</defs>
</svg>
